<svg width="61" height="61" viewBox="0 0 61 61" fill="none" xmlns="http://www.w3.org/2000/svg">
<path d="M17.1561 20.4874C15.2305 20.5154 13.6705 22.1064 13.6705 24.0404V38.1519C13.6705 40.086 15.2319 41.6713 17.1561 41.6992C17.233 41.7005 17.3095 41.6865 17.381 41.6581C17.4526 41.6297 17.5179 41.5875 17.5731 41.5339C17.6283 41.4803 17.6724 41.4163 17.7029 41.3456C17.7333 41.2749 17.7495 41.1989 17.7506 41.1219C17.7516 41.0451 17.7375 40.9687 17.7091 40.8973C17.6806 40.8259 17.6384 40.7608 17.5848 40.7057C17.5312 40.6506 17.4672 40.6066 17.3966 40.5762C17.326 40.5458 17.2501 40.5297 17.1732 40.5286C15.8782 40.5098 14.8412 39.4605 14.8412 38.1519V24.0404C14.8412 22.7318 15.8796 21.6768 17.1732 21.658C17.2501 21.657 17.326 21.6408 17.3966 21.6104C17.4672 21.58 17.5312 21.536 17.5848 21.4809C17.6384 21.4258 17.6806 21.3607 17.7091 21.2893C17.7375 21.2179 17.7516 21.1416 17.7506 21.0647C17.7495 20.9877 17.7333 20.9117 17.7029 20.841C17.6724 20.7703 17.6283 20.7063 17.5731 20.6527C17.5179 20.5991 17.4526 20.5569 17.381 20.5285C17.3095 20.5001 17.233 20.4862 17.1561 20.4874Z" fill="white"/>
<path d="M45.0363 20.4874C44.9594 20.486 44.883 20.4998 44.8115 20.528C44.7399 20.5561 44.6746 20.5981 44.6193 20.6515C44.564 20.7049 44.5198 20.7687 44.4891 20.8392C44.4585 20.9097 44.442 20.9856 44.4406 21.0624C44.4393 21.1393 44.4531 21.2157 44.4812 21.2872C44.5094 21.3587 44.5514 21.424 44.6048 21.4793C44.6582 21.5346 44.7219 21.5789 44.7924 21.6096C44.8629 21.6402 44.9388 21.6567 45.0157 21.658C46.3174 21.6816 47.3501 22.7374 47.3501 24.0404V38.1519C47.3501 39.455 46.3189 40.505 45.0157 40.5286C44.9388 40.53 44.8629 40.5464 44.7924 40.5771C44.7219 40.6078 44.6582 40.652 44.6048 40.7073C44.5514 40.7626 44.5094 40.8279 44.4812 40.8995C44.4531 40.971 44.4393 41.0474 44.4406 41.1242C44.442 41.2011 44.4585 41.277 44.4891 41.3475C44.5198 41.418 44.564 41.4817 44.6193 41.5351C44.6746 41.5885 44.7399 41.6305 44.8115 41.6587C44.883 41.6868 44.9594 41.7006 45.0363 41.6993C46.964 41.6643 48.5207 40.0799 48.5207 38.1519V24.0404C48.5207 22.1125 46.9654 20.5223 45.0363 20.4874Z" fill="white"/>
<path d="M21.067 44.4383C20.99 44.4393 20.914 44.4555 20.8433 44.486C20.7727 44.5165 20.7087 44.5606 20.655 44.6158C20.6014 44.671 20.5592 44.7362 20.5308 44.8078C20.5025 44.8793 20.4885 44.9558 20.4897 45.0327C20.5178 46.9569 22.1029 48.5183 24.037 48.5183H38.1485C40.0873 48.5183 41.6736 46.9569 41.7015 45.0327C41.7027 44.9558 41.6888 44.8793 41.6604 44.8078C41.632 44.7362 41.5898 44.671 41.5362 44.6158C41.4826 44.5606 41.4186 44.5165 41.3479 44.486C41.2772 44.4555 41.2012 44.4393 41.1242 44.4383C41.0474 44.4372 40.9711 44.4513 40.8996 44.4798C40.8282 44.5082 40.7631 44.5504 40.708 44.604C40.6529 44.6577 40.6089 44.7216 40.5785 44.7922C40.5481 44.8628 40.532 44.9387 40.5309 45.0156C40.5122 46.3106 39.4641 47.3477 38.1485 47.3477H24.037C22.7284 47.3477 21.6791 46.3106 21.6603 45.0156C21.6593 44.9387 21.6431 44.8628 21.6127 44.7922C21.5823 44.7216 21.5383 44.6577 21.4832 44.604C21.4281 44.5504 21.363 44.5082 21.2916 44.4798C21.2202 44.4513 21.1439 44.4372 21.067 44.4383Z" fill="white"/>
<path d="M24.037 13.6682C22.1029 13.6682 20.5176 15.2317 20.4897 17.1607C20.4886 17.2375 20.5027 17.3138 20.5312 17.3853C20.5596 17.4567 20.6018 17.5218 20.6554 17.5769C20.709 17.632 20.773 17.676 20.8436 17.7064C20.9142 17.7367 20.9901 17.7529 21.067 17.754C21.1438 17.755 21.2202 17.7409 21.2916 17.7125C21.363 17.6841 21.4281 17.6418 21.4832 17.5882C21.5383 17.5346 21.5823 17.4707 21.6127 17.4001C21.6431 17.3294 21.6593 17.2535 21.6603 17.1767C21.679 15.8747 22.7284 14.8388 24.037 14.8388H38.1485C39.464 14.8388 40.5121 15.8747 40.5309 17.1767C40.5319 17.2535 40.5481 17.3294 40.5785 17.4001C40.6089 17.4707 40.6529 17.5346 40.708 17.5882C40.7631 17.6418 40.8282 17.6841 40.8996 17.7125C40.971 17.7409 41.0474 17.755 41.1242 17.754C41.2011 17.7529 41.277 17.7367 41.3476 17.7064C41.4182 17.676 41.4822 17.632 41.5358 17.5769C41.5894 17.5218 41.6316 17.4567 41.66 17.3853C41.6885 17.3138 41.7026 17.2375 41.7015 17.1607C41.6734 15.2317 40.0873 13.6682 38.1485 13.6682H24.037Z" fill="white"/>
<path d="M19.8872 16.5822C18.0683 16.5822 16.5811 18.0695 16.5811 19.8883V42.3005C16.5811 44.1194 18.0683 45.6066 19.8872 45.6066H42.304C44.1228 45.6066 45.61 44.1194 45.61 42.3005V19.8883C45.61 18.0693 44.1226 16.5815 42.304 16.5822H19.8872ZM19.8872 17.7528H42.304C43.4892 17.7524 44.4383 18.7023 44.4383 19.8883V42.3005C44.4383 43.4867 43.489 44.436 42.3028 44.436H19.886C18.6998 44.436 17.7505 43.4867 17.7505 42.3005V19.8883C17.7505 18.7022 18.6998 17.7528 19.886 17.7528H19.8872Z" fill="white"/>
<path d="M31.0984 9.4613C30.9431 9.4613 30.7943 9.52297 30.6845 9.63274C30.5747 9.74251 30.5131 9.89138 30.5131 10.0466V14.193C30.5131 14.3482 30.5747 14.4971 30.6845 14.6068C30.7943 14.7166 30.9431 14.7783 31.0984 14.7783C31.2536 14.7783 31.4025 14.7166 31.5123 14.6068C31.622 14.4971 31.6837 14.3482 31.6837 14.193V10.0466C31.6837 9.89138 31.622 9.74251 31.5123 9.63274C31.4025 9.52297 31.2536 9.4613 31.0984 9.4613Z" fill="white"/>
<path d="M31.1008 5.77112C29.7628 5.77112 28.6658 6.86814 28.6658 8.20611C28.6658 9.53683 29.7628 10.6297 31.1008 10.6297C32.4315 10.6297 33.5243 9.53683 33.5243 8.20611C33.5243 6.86814 32.4315 5.77112 31.1008 5.77112ZM31.1008 6.94174C31.7929 6.94174 32.3537 7.50016 32.3537 8.20611C32.3537 8.89822 31.7929 9.45904 31.1008 9.45904C30.3948 9.45904 29.8364 8.89822 29.8364 8.20611C29.8364 7.50016 30.3948 6.94174 31.1008 6.94174Z" fill="white"/>
<path d="M22.6504 3C21.3124 3 20.2153 4.09703 20.2153 5.43499C20.2153 6.76571 21.3124 7.85969 22.6504 7.85969C23.9811 7.85969 25.075 6.76571 25.075 5.43499C25.075 4.09703 23.9811 3 22.6504 3ZM22.6504 4.17062C23.3424 4.17062 23.9044 4.72905 23.9044 5.43499C23.9044 6.12711 23.3424 6.68907 22.6504 6.68907C21.9444 6.68907 21.386 6.12711 21.386 5.43499C21.386 4.72905 21.9444 4.17062 22.6504 4.17062Z" fill="white"/>
<path d="M39.5396 3C38.2089 3 37.115 4.09703 37.115 5.43499C37.115 6.76571 38.2089 7.85969 39.5396 7.85969C40.8776 7.85969 41.9747 6.76571 41.9747 5.43499C41.9747 4.09703 40.8776 3 39.5396 3ZM39.5396 4.17062C40.2456 4.17062 40.804 4.72905 40.804 5.43499C40.804 6.12711 40.2456 6.68907 39.5396 6.68907C38.8476 6.68907 38.2856 6.12711 38.2856 5.43499C38.2856 4.72905 38.8476 4.17062 39.5396 4.17062Z" fill="white"/>
<path d="M39.5478 6.68909C39.3926 6.68909 39.2437 6.75075 39.1339 6.86052C39.0242 6.97029 38.9625 7.11916 38.9625 7.2744V11.1292L35.709 13.8043C35.5893 13.9029 35.5137 14.045 35.4987 14.1993C35.4837 14.3536 35.5306 14.5076 35.629 14.6274C35.7274 14.7472 35.8694 14.823 36.0237 14.8382C36.178 14.8535 36.3321 14.8068 36.452 14.7086L39.9194 11.8574C39.9861 11.8026 40.0399 11.7337 40.0768 11.6556C40.1138 11.5775 40.133 11.4923 40.1331 11.4059V7.2744C40.1331 7.11916 40.0714 6.97029 39.9617 6.86052C39.8519 6.75075 39.703 6.68909 39.5478 6.68909Z" fill="white"/>
<path d="M22.6479 6.68909C22.4927 6.68909 22.3438 6.75075 22.2341 6.86052C22.1243 6.97029 22.0626 7.11916 22.0626 7.2744V11.4059C22.0627 11.4923 22.082 11.5775 22.1189 11.6556C22.1559 11.7337 22.2096 11.8026 22.2764 11.8574L25.7357 14.7074C25.795 14.7564 25.8633 14.7932 25.9369 14.8157C26.0104 14.8382 26.0876 14.8461 26.1642 14.8388C26.2407 14.8314 26.315 14.8091 26.383 14.773C26.4509 14.737 26.511 14.6879 26.5599 14.6285C26.6088 14.5692 26.6455 14.5008 26.668 14.4272C26.6904 14.3536 26.6981 14.2764 26.6907 14.1998C26.6833 14.1233 26.6608 14.0489 26.6246 13.9811C26.5885 13.9132 26.5393 13.8531 26.4799 13.8043L23.2332 11.1292V7.2744C23.2332 7.11916 23.1716 6.97029 23.0618 6.86052C22.952 6.75075 22.8032 6.68909 22.6479 6.68909Z" fill="white"/>
<path d="M31.0915 47.4117C30.9363 47.4117 30.7874 47.4734 30.6777 47.5832C30.5679 47.6929 30.5062 47.8418 30.5062 47.9971V52.1434C30.5062 52.2986 30.5679 52.4475 30.6777 52.5573C30.7874 52.6671 30.9363 52.7287 31.0915 52.7287C31.2468 52.7287 31.3956 52.6671 31.5054 52.5573C31.6152 52.4475 31.6769 52.2986 31.6769 52.1434V47.9971C31.6769 47.8418 31.6152 47.6929 31.5054 47.5832C31.3956 47.4734 31.2468 47.4117 31.0915 47.4117Z" fill="white"/>
<path d="M31.0893 51.5604C29.7586 51.5604 28.6658 52.6532 28.6658 53.9839C28.6658 55.3219 29.7586 56.4189 31.0893 56.4189C32.4273 56.4189 33.5243 55.3219 33.5243 53.9839C33.5243 52.6532 32.4273 51.5604 31.0893 51.5604ZM31.0893 52.731C31.7953 52.731 32.3537 53.2918 32.3537 53.9839C32.3537 54.6899 31.7953 55.2483 31.0893 55.2483C30.3972 55.2483 29.8364 54.6899 29.8364 53.9839C29.8364 53.2918 30.3972 52.731 31.0893 52.731Z" fill="white"/>
<path d="M39.5396 54.3303C38.2089 54.3303 37.115 55.4243 37.115 56.755C37.115 58.093 38.2089 59.19 39.5396 59.19C40.8776 59.19 41.9747 58.093 41.9747 56.755C41.9747 55.4243 40.8776 54.3303 39.5396 54.3303ZM39.5396 55.5009C40.2456 55.5009 40.804 56.0629 40.804 56.755C40.804 57.461 40.2456 58.0194 39.5396 58.0194C38.8476 58.0194 38.2856 57.461 38.2856 56.755C38.2856 56.0629 38.8476 55.5009 39.5396 55.5009Z" fill="white"/>
<path d="M22.6504 54.3303C21.3124 54.3303 20.2153 55.4243 20.2153 56.755C20.2153 58.093 21.3124 59.19 22.6504 59.19C23.9811 59.19 25.075 58.093 25.075 56.755C25.075 55.4243 23.9811 54.3303 22.6504 54.3303ZM22.6504 55.5009C23.3424 55.5009 23.9044 56.0629 23.9044 56.755C23.9044 57.461 23.3424 58.0194 22.6504 58.0194C21.9444 58.0194 21.386 57.461 21.386 56.755C21.386 56.0629 21.9444 55.5009 22.6504 55.5009Z" fill="white"/>
<path d="M25.7381 47.4814L22.2708 50.3326C22.204 50.3874 22.1502 50.4563 22.1133 50.5344C22.0763 50.6125 22.0571 50.6977 22.057 50.7841V54.9156C22.057 55.0708 22.1187 55.2197 22.2284 55.3295C22.3382 55.4392 22.4871 55.5009 22.6423 55.5009C22.7976 55.5009 22.9464 55.4392 23.0562 55.3295C23.166 55.2197 23.2276 55.0708 23.2276 54.9156V51.0608L26.4812 48.3857C26.6008 48.2871 26.6764 48.145 26.6914 47.9907C26.7064 47.8364 26.6596 47.6824 26.5612 47.5626C26.4627 47.4428 26.3207 47.367 26.1664 47.3518C26.0121 47.3365 25.8581 47.3832 25.7381 47.4814Z" fill="white"/>
<path d="M36.4543 47.4826C36.3346 47.384 36.1808 47.337 36.0264 47.3518C35.8721 47.3666 35.73 47.442 35.6312 47.5615C35.5822 47.6207 35.5454 47.6891 35.5229 47.7626C35.5004 47.8361 35.4925 47.9134 35.4999 47.9899C35.5072 48.0665 35.5295 48.1408 35.5656 48.2087C35.6017 48.2766 35.6508 48.3368 35.7101 48.3857L38.9567 51.0608V54.9156C38.9567 55.0708 39.0184 55.2197 39.1281 55.3295C39.2379 55.4392 39.3868 55.5009 39.542 55.5009C39.6972 55.5009 39.8461 55.4392 39.9559 55.3295C40.0657 55.2197 40.1273 55.0708 40.1273 54.9156V50.7841C40.1272 50.6977 40.108 50.6124 40.071 50.5344C40.0341 50.4563 39.9803 50.3874 39.9136 50.3325L36.4543 47.4826Z" fill="white"/>
<path d="M47.9971 30.5131C47.8418 30.5131 47.6929 30.5748 47.5832 30.6846C47.4734 30.7943 47.4117 30.9432 47.4117 31.0984C47.4117 31.2537 47.4734 31.4025 47.5832 31.5123C47.6929 31.6221 47.8418 31.6837 47.9971 31.6837H52.1434C52.2986 31.6837 52.4475 31.6221 52.5572 31.5123C52.667 31.4025 52.7287 31.2537 52.7287 31.0984C52.7287 30.9432 52.667 30.7943 52.5572 30.6846C52.4475 30.5748 52.2986 30.5131 52.1434 30.5131H47.9971Z" fill="white"/>
<path d="M53.9839 28.6657C52.6531 28.6657 51.5603 29.7627 51.5603 31.1007C51.5603 32.4314 52.6531 33.5243 53.9839 33.5243C55.3219 33.5243 56.4189 32.4314 56.4189 31.1007C56.4189 29.7627 55.3219 28.6657 53.9839 28.6657ZM53.9839 29.8363C54.6899 29.8363 55.2482 30.3948 55.2482 31.1007C55.2482 31.7928 54.6899 32.3536 53.9839 32.3536C53.2918 32.3536 52.7309 31.7928 52.7309 31.1007C52.7309 30.3948 53.2918 29.8363 53.9839 29.8363Z" fill="white"/>
<path d="M56.755 20.2153C55.4243 20.2153 54.3303 21.3123 54.3303 22.6503C54.3303 23.981 55.4243 25.075 56.755 25.075C58.0929 25.075 59.19 23.981 59.19 22.6503C59.19 21.3123 58.0929 20.2153 56.755 20.2153ZM56.755 21.3859C57.4609 21.3859 58.0194 21.9443 58.0194 22.6503C58.0194 23.3424 57.4609 23.9043 56.755 23.9043C56.0629 23.9043 55.5009 23.3424 55.5009 22.6503C55.5009 21.9443 56.0629 21.3859 56.755 21.3859Z" fill="white"/>
<path d="M56.755 37.1151C55.4243 37.1151 54.3303 38.209 54.3303 39.5397C54.3303 40.8777 55.4243 41.9747 56.755 41.9747C58.0929 41.9747 59.19 40.8777 59.19 39.5397C59.19 38.209 58.0929 37.1151 56.755 37.1151ZM56.755 38.2857C57.4609 38.2857 58.0194 38.8476 58.0194 39.5397C58.0194 40.2457 57.4609 40.8041 56.755 40.8041C56.0629 40.8041 55.5009 40.2457 55.5009 39.5397C55.5009 38.8476 56.0629 38.2857 56.755 38.2857Z" fill="white"/>
<path d="M47.9901 35.4985C47.836 35.4837 47.6822 35.5306 47.5626 35.6289C47.4428 35.7273 47.3669 35.8693 47.3517 36.0236C47.3365 36.1779 47.3831 36.332 47.4814 36.452L50.3325 39.9192C50.3873 39.986 50.4563 40.0398 50.5343 40.0767C50.6124 40.1137 50.6977 40.1329 50.7841 40.133H54.9156C55.0708 40.133 55.2197 40.0714 55.3294 39.9616C55.4392 39.8518 55.5009 39.7029 55.5009 39.5477C55.5009 39.3925 55.4392 39.2436 55.3294 39.1338C55.2197 39.0241 55.0708 38.9624 54.9156 38.9624H51.0607L48.3856 35.7089C48.3367 35.6496 48.2766 35.6005 48.2088 35.5644C48.1409 35.5283 48.0666 35.5059 47.9901 35.4985Z" fill="white"/>
<path d="M50.7841 22.0627C50.6977 22.0628 50.6124 22.082 50.5343 22.119C50.4563 22.1559 50.3873 22.2097 50.3325 22.2765L47.4825 25.7357C47.4335 25.795 47.3967 25.8634 47.3742 25.9369C47.3517 26.0104 47.3438 26.0877 47.3512 26.1642C47.3585 26.2408 47.3808 26.3151 47.4169 26.383C47.453 26.4509 47.5021 26.5111 47.5614 26.56C47.6208 26.6089 47.6892 26.6456 47.7627 26.668C47.8363 26.6905 47.9136 26.6982 47.9901 26.6908C48.0666 26.6833 48.141 26.6609 48.2089 26.6247C48.2767 26.5886 48.3368 26.5394 48.3856 26.48L51.0607 23.2333H54.9156C55.0708 23.2333 55.2197 23.1716 55.3294 23.0619C55.4392 22.9521 55.5009 22.8032 55.5009 22.648C55.5009 22.4928 55.4392 22.3439 55.3294 22.2341C55.2197 22.1243 55.0708 22.0627 54.9156 22.0627H50.7841Z" fill="white"/>
<path d="M10.0466 30.5063C9.89138 30.5063 9.7425 30.568 9.63274 30.6777C9.52297 30.7875 9.4613 30.9364 9.4613 31.0916C9.4613 31.2468 9.52297 31.3957 9.63274 31.5055C9.7425 31.6152 9.89138 31.6769 10.0466 31.6769H14.1929C14.3481 31.6769 14.497 31.6152 14.6068 31.5055C14.7166 31.3957 14.7782 31.2468 14.7782 31.0916C14.7782 30.9364 14.7166 30.7875 14.6068 30.6777C14.497 30.568 14.3481 30.5063 14.1929 30.5063H10.0466Z" fill="white"/>
<path d="M8.20608 28.6657C6.86811 28.6657 5.77112 29.7585 5.77112 31.0893C5.77112 32.4272 6.86811 33.5243 8.20608 33.5243C9.53684 33.5243 10.6297 32.4272 10.6297 31.0893C10.6297 29.7585 9.53684 28.6657 8.20608 28.6657ZM8.20608 29.8363C8.89821 29.8363 9.45905 30.3972 9.45905 31.0893C9.45905 31.7952 8.89821 32.3536 8.20608 32.3536C7.50013 32.3536 6.94174 31.7952 6.94174 31.0893C6.94174 30.3972 7.50013 29.8363 8.20608 29.8363Z" fill="white"/>
<path d="M5.43502 37.1151C4.09705 37.1151 3 38.209 3 39.5397C3 40.8777 4.09705 41.9747 5.43502 41.9747C6.76572 41.9747 7.85967 40.8777 7.85967 39.5397C7.85967 38.209 6.76572 37.1151 5.43502 37.1151ZM5.43502 38.2857C6.12709 38.2857 6.68905 38.8476 6.68905 39.5397C6.68905 40.2457 6.12709 40.8041 5.43502 40.8041C4.72907 40.8041 4.17062 40.2457 4.17062 39.5397C4.17062 38.8476 4.72907 38.2857 5.43502 38.2857Z" fill="white"/>
<path d="M5.43502 20.2153C4.09705 20.2153 3 21.3123 3 22.6503C3 23.981 4.09705 25.075 5.43502 25.075C6.76572 25.075 7.85967 23.981 7.85967 22.6503C7.85967 21.3123 6.76572 20.2153 5.43502 20.2153ZM5.43502 21.3859C6.12709 21.3859 6.68905 21.9443 6.68905 22.6503C6.68905 23.3424 6.12709 23.9043 5.43502 23.9043C4.72907 23.9043 4.17062 23.3424 4.17062 22.6503C4.17062 21.9443 4.72907 21.3859 5.43502 21.3859Z" fill="white"/>
<path d="M7.2744 22.0569C7.11916 22.0569 6.97029 22.1186 6.86052 22.2284C6.75075 22.3381 6.68909 22.487 6.68909 22.6423C6.68909 22.7975 6.75075 22.9464 6.86052 23.0561C6.97029 23.1659 7.11916 23.2276 7.2744 23.2276H11.1293L13.8043 26.4811C13.9029 26.6007 14.045 26.6763 14.1993 26.6913C14.3536 26.7063 14.5076 26.6595 14.6274 26.5611C14.7472 26.4627 14.823 26.3207 14.8383 26.1664C14.8535 26.012 14.8068 25.858 14.7086 25.738L11.8575 22.2707C11.8026 22.204 11.7337 22.1502 11.6556 22.1132C11.5776 22.0763 11.4923 22.0571 11.4059 22.0569H7.2744Z" fill="white"/>
<path d="M14.6286 35.63C14.5692 35.5811 14.5008 35.5444 14.4272 35.5219C14.3537 35.4995 14.2764 35.4918 14.1999 35.4992C14.1233 35.5066 14.049 35.5291 13.9811 35.5652C13.9132 35.6014 13.8532 35.6506 13.8043 35.71L11.1293 38.9567H7.2744C7.11916 38.9567 6.97029 39.0183 6.86052 39.1281C6.75075 39.2379 6.68909 39.3868 6.68909 39.542C6.68909 39.6972 6.75075 39.8461 6.86052 39.9559C6.97029 40.0656 7.11916 40.1273 7.2744 40.1273H11.4059C11.4923 40.1272 11.5775 40.108 11.6556 40.071C11.7337 40.034 11.8026 39.9803 11.8575 39.9135L14.7075 36.4542C14.7564 36.3949 14.7932 36.3266 14.8158 36.2531C14.8383 36.1795 14.8461 36.1023 14.8388 36.0258C14.8315 35.9492 14.8091 35.8749 14.773 35.807C14.737 35.7391 14.6879 35.6789 14.6286 35.63Z" fill="white"/>
<path d="M31.1523 39.9127C26.293 39.9127 22.3392 35.9595 22.3392 31.0996C22.3392 26.2421 26.2924 22.2906 31.1523 22.2906C36.0092 22.2906 39.9607 26.2421 39.9607 31.0996C39.9607 35.9595 36.0092 39.9127 31.1523 39.9127ZM31.1523 23.4619C26.9386 23.4619 23.5099 26.8883 23.5099 31.1002C23.5099 35.3139 26.938 38.7426 31.1523 38.7426C35.3642 38.7426 38.79 35.3144 38.79 31.1002C38.79 26.8883 35.3642 23.4619 31.1523 23.4619Z" fill="white"/>
<path d="M31.1497 35.9926C29.6407 35.9926 28.4133 34.7628 28.4133 33.2521C28.4133 32.9285 28.675 32.6668 28.9986 32.6668C29.3223 32.6668 29.584 32.9285 29.584 33.2521C29.584 34.1178 30.2863 34.8219 31.1497 34.8219C32.0136 34.8219 32.716 34.1178 32.716 33.2521C32.716 32.3888 32.0136 31.6864 31.1497 31.6864C29.6407 31.6864 28.4133 30.4567 28.4133 28.946C28.4133 27.4371 29.6407 26.2097 31.1497 26.2097C32.6586 26.2097 33.8866 27.4371 33.8866 28.946C33.8866 29.2697 33.625 29.5313 33.3013 29.5313C32.9776 29.5313 32.716 29.2697 32.716 28.946C32.716 28.0827 32.0136 27.3803 31.1497 27.3803C30.2863 27.3803 29.584 28.0827 29.584 28.946C29.584 29.8117 30.2863 30.5158 31.1497 30.5158C32.6586 30.5158 33.8866 31.7432 33.8866 33.2521C33.8866 34.7634 32.6586 35.9926 31.1497 35.9926Z" fill="white"/>
<path d="M31.1496 37.1222C30.826 37.1222 30.5643 36.8605 30.5643 36.5369V35.4072C30.5643 35.0835 30.826 34.8219 31.1496 34.8219C31.4733 34.8219 31.735 35.0835 31.735 35.4072V36.5369C31.735 36.8605 31.4733 37.1222 31.1496 37.1222Z" fill="white"/>
<path d="M31.1496 27.3815C30.826 27.3815 30.5643 27.1198 30.5643 26.7961V25.6665C30.5643 25.3428 30.826 25.0812 31.1496 25.0812C31.4733 25.0812 31.735 25.3428 31.735 25.6665V26.7961C31.735 27.1192 31.4733 27.3815 31.1496 27.3815Z" fill="white"/>
</svg>
