<svg width="81" height="92" viewBox="0 0 81 92" fill="none" xmlns="http://www.w3.org/2000/svg">
<path d="M69.117 31.9133L64.6465 22.4412C64.5188 22.1725 64.2501 22 63.9522 22H27.2767C26.9788 22 26.7078 22.1725 26.5824 22.4412L22.1119 31.9133C22.0626 32.0163 22.038 32.1283 22.038 32.2403V35.7186C22.038 36.9437 22.6248 38.0568 23.5722 38.8676V51.7483C23.5722 52.1716 23.9171 52.5165 24.3404 52.5165C24.7637 52.5165 25.1086 52.1716 25.1086 51.7483V39.7884C25.5274 39.9542 25.9776 40.0751 26.4457 40.1445V51.7507C26.4457 52.174 26.7906 52.5189 27.2139 52.5189C27.6372 52.5189 27.9821 52.174 27.9821 51.7507V40.1801C29.6552 40.0166 31.0953 39.2014 31.9307 38.0411C32.8647 39.3424 34.5601 40.2115 36.4908 40.2115C38.4214 40.2115 40.1169 39.3402 41.0508 38.0411C41.9848 39.3402 43.6802 40.2115 45.6109 40.2115C47.5438 40.2115 49.2392 39.3402 50.1754 38.0411C51.1094 39.3424 52.8048 40.2115 54.7355 40.2115C56.6661 40.2115 58.3616 39.3402 59.2955 38.0411C60.1287 39.2013 61.5711 40.0166 63.2441 40.1801V55.5108L44.4572 55.5131C44.0338 55.5131 43.689 55.858 43.689 56.2813C43.689 56.7045 44.0339 57.0495 44.4572 57.0495H66.1173V58.9376C66.1173 59.4706 65.6671 59.9208 65.1341 59.9208H40.7504C41.6351 59.5647 42.2622 58.6957 42.2622 57.6833V56.4694C42.2622 55.139 41.1805 54.0595 39.8523 54.0595H36.5263L34.9966 49.3448C34.8644 48.9417 34.4322 48.72 34.029 48.8521C33.6259 48.982 33.4042 49.4165 33.5363 49.8196L34.9114 54.0594H20.353L21.7282 49.8196C21.8581 49.4165 21.6386 48.982 21.2355 48.8521C20.8323 48.7222 20.3978 48.9417 20.2679 49.3448L18.7382 54.0595H15.4099C14.0818 54.0595 13 55.1412 13 56.4694V57.6833C13 58.8905 13.8914 59.8917 15.0493 60.0664L18.7359 70.1834C18.8457 70.4858 19.1346 70.6896 19.4571 70.6896H35.8027C36.1252 70.6896 36.4141 70.488 36.5239 70.1834L39.7043 61.4551H41.1847V65.3186H39.5946C39.1712 65.3186 38.8264 65.6635 38.8264 66.0868C38.8264 66.5101 39.1713 66.855 39.5946 66.855H53.2969V69.1507H38.0287C37.6054 69.1507 37.2605 69.4956 37.2605 69.9189C37.2605 70.3422 37.6054 70.6871 38.0287 70.6871H54.0652C54.4885 70.6871 54.8334 70.3422 54.8334 69.9189V66.0867C54.8334 65.6634 54.4885 65.3185 54.0652 65.3185H50.0405V61.455L65.1361 61.4572C66.5248 61.4572 67.6558 60.3262 67.6558 58.9376V38.8697C68.6032 38.0589 69.19 36.9457 69.19 35.7206V32.2423C69.19 32.1281 69.1654 32.0161 69.1161 31.9131L69.117 31.9133ZM14.5375 57.6833V56.4694C14.5375 55.9878 14.9294 55.5959 15.4109 55.5959H19.2946H19.2968H19.2991H35.9623H35.9645H35.9668H39.8504C40.332 55.5959 40.7239 55.9879 40.7239 56.4694V57.6833C40.7239 58.1649 40.332 58.5568 39.8504 58.5568L15.4106 58.559C14.9291 58.559 14.5375 58.1648 14.5375 57.6833ZM35.2659 69.153H19.9977L16.6963 60.0932H38.5675L35.2659 69.153ZM48.5073 65.3208H42.7243V61.4573H48.5073V65.3208ZM67.2111 31.4743H59.8382L56.9825 23.5389H63.4667L67.2111 31.4743ZM33.024 31.4743L35.8797 23.5389H41.4342L40.3793 31.4743H33.024ZM42.9863 23.5389H48.2765L49.3314 31.4743H41.9292L42.9863 23.5389ZM50.8816 31.4743L49.8267 23.5389H55.3498L58.2055 31.4743H50.8816ZM27.7634 23.5389H34.2476L31.3919 31.4743H24.019L27.7634 23.5389ZM27.3669 38.6747C25.3109 38.6747 23.5751 37.3219 23.5751 35.7205V33.0104H31.163V35.7205C31.163 37.3219 29.4253 38.6747 27.3669 38.6747ZM36.4915 38.6747C34.3996 38.6747 32.6997 37.3487 32.6997 35.7205V33.0104H40.2836V35.7205C40.2858 37.3219 38.5476 38.6747 36.4915 38.6747ZM45.6138 38.6747C43.5578 38.6747 41.8219 37.3219 41.8219 35.7205V33.0104H49.4099V35.7205C49.4077 37.3219 47.6698 38.6747 45.6138 38.6747ZM54.7384 38.6747C52.6824 38.6747 50.9465 37.3219 50.9465 35.7205V33.0104H58.5305V35.7205C58.5305 37.3487 56.828 38.6747 54.7384 38.6747ZM60.0667 35.7205V33.0104H67.6547V35.7205C67.6547 37.3219 65.9189 38.6747 63.8628 38.6747C61.8045 38.6747 60.0667 37.3219 60.0667 35.7205ZM66.1209 55.5132H64.7838V40.144C65.2542 40.0746 65.7021 39.9537 66.1209 39.7879V55.5132ZM23.4812 67.3412C23.5641 67.7578 23.2931 68.1609 22.8765 68.2438C22.825 68.2528 22.7757 68.2595 22.7264 68.2595C22.3658 68.2595 22.0455 68.0064 21.9739 67.6413L20.8406 61.9143C20.7577 61.4978 21.0287 61.0946 21.4453 61.0117C21.8619 60.9289 22.265 61.1999 22.3479 61.6165L23.4812 67.3412ZM34.4245 61.9121L33.2912 67.6391C33.2195 68.0041 32.897 68.2572 32.5387 68.2572C32.4894 68.2572 32.4379 68.2527 32.3886 68.2415C31.972 68.1587 31.701 67.7555 31.7839 67.3389L32.9172 61.612C33 61.1954 33.4032 60.9244 33.8198 61.0072C34.2364 61.0901 34.5074 61.4955 34.4245 61.9121ZM28.4019 61.9367V67.3121C28.4019 67.7354 28.0569 68.0802 27.6337 68.0802C27.2104 68.0802 26.8655 67.7353 26.8655 67.3121V61.9367C26.8655 61.5134 27.2104 61.1685 27.6337 61.1685C28.0569 61.1685 28.4019 61.5112 28.4019 61.9367ZM50.0196 51.8626C50.4429 51.8626 50.7878 51.5177 50.7878 51.0944V42.2881C50.7878 41.8648 50.4429 41.5199 50.0196 41.5199H41.2132C40.7899 41.5199 40.445 41.8648 40.445 42.2881V51.0944C40.445 51.5177 40.7899 51.8626 41.2132 51.8626H50.0196ZM44.969 43.0563H46.2613V45.1056H44.969V43.0563ZM41.979 43.0563H43.4326V45.8739C43.4326 46.2972 43.7775 46.6421 44.2008 46.6421H47.0296C47.4529 46.6421 47.7978 46.2971 47.7978 45.8739V43.0563H49.2514V50.3266H41.9811L41.979 43.0563Z" fill="white"/>
</svg>
