<svg width="64" height="80" viewBox="0 0 64 80" fill="none" xmlns="http://www.w3.org/2000/svg">
<path d="M32.222 27.9205C35.2015 27.9237 38.058 29.1087 40.1649 31.2156C42.2717 33.3224 43.4568 36.179 43.46 39.1585H45.333C45.333 35.6812 43.9517 32.3464 41.4929 29.8876C39.0341 27.4288 35.6992 26.0475 32.222 26.0475C28.7447 26.0475 25.4099 27.4288 22.9511 29.8876C20.4923 32.3464 19.111 35.6812 19.111 39.1585H20.984C20.9872 36.179 22.1722 33.3224 24.2791 31.2156C26.3859 29.1087 29.2425 27.9237 32.222 27.9205Z" fill="white"/>
<path d="M45.3331 41.0315H43.4601V42.9045H45.3331V41.0315Z" fill="white"/>
<path d="M32.222 33.5395C30.9255 33.5395 29.658 33.924 28.58 34.6443C27.5019 35.3646 26.6617 36.3885 26.1655 37.5863C25.6693 38.7842 25.5395 40.1023 25.7925 41.3739C26.0454 42.6456 26.6698 43.8136 27.5866 44.7304C28.5034 45.6472 29.6715 46.2716 30.9431 46.5245C32.2147 46.7775 33.5328 46.6477 34.7307 46.1515C35.9286 45.6553 36.9524 44.8151 37.6727 43.737C38.393 42.659 38.7775 41.3916 38.7775 40.095C38.7755 38.357 38.0842 36.6907 36.8553 35.4617C35.6263 34.2328 33.96 33.5415 32.222 33.5395ZM32.222 44.7775C31.2959 44.7775 30.3906 44.5029 29.6206 43.9884C28.8505 43.4738 28.2504 42.7425 27.8959 41.8869C27.5415 41.0313 27.4488 40.0898 27.6295 39.1815C27.8102 38.2732 28.2561 37.4388 28.911 36.784C29.5658 36.1291 30.4002 35.6831 31.3085 35.5025C32.2168 35.3218 33.1583 35.4145 34.0139 35.7689C34.8695 36.1233 35.6009 36.7235 36.1154 37.4935C36.6299 38.2636 36.9045 39.1689 36.9045 40.095C36.903 41.3364 36.4092 42.5266 35.5314 43.4044C34.6536 44.2822 33.4634 44.776 32.222 44.7775Z" fill="white"/>
<path d="M35.968 49.46H34.095V51.333H35.968V49.46Z" fill="white"/>
<path d="M39.7141 47.587H37.8411V49.46H39.7141V47.587Z" fill="white"/>
<path d="M43.46 44.7775H41.587V46.6505H43.46V44.7775Z" fill="white"/>
<path d="M20.984 41.0315H19.111V42.9045H20.984V41.0315Z" fill="white"/>
<path d="M51.8885 53.2061H50.0155V55.0791H51.8885V53.2061Z" fill="white"/>
<path d="M32.221 12C32.0983 11.9988 31.9765 12.0231 31.8637 12.0715C31.7508 12.1198 31.6493 12.1912 31.5655 12.281L31.5599 12.2754L27.8139 16.0214L29.1371 17.3446L31.2845 15.1972L31.2845 20.4285L33.1575 20.4285L33.1575 15.1972L35.3049 17.3446L36.6292 16.0204L32.8831 12.2744C32.7076 12.0988 32.4694 12.0001 32.221 12Z" fill="white"/>
<path d="M45.9941 16.6825C45.8713 16.6812 45.7496 16.7056 45.6367 16.7539C45.5239 16.8023 45.4223 16.8737 45.3386 16.9635L45.3329 16.9578L41.5869 20.7038L42.9102 22.0271L45.0576 19.8797L45.0576 25.111L46.9306 25.111L46.9306 19.8797L49.078 22.0271L50.4022 20.7029L46.6562 16.9569C46.4806 16.7813 46.2425 16.6826 45.9941 16.6825Z" fill="white"/>
<path d="M17.8991 16.6825C17.7764 16.6812 17.6546 16.7056 17.5418 16.7539C17.4289 16.8023 17.3274 16.8737 17.2436 16.9635L17.238 16.9578L13.492 20.7038L14.8152 22.0271L16.9626 19.8797L16.9626 25.111L18.8356 25.111L18.8356 19.8797L20.983 22.0271L22.3073 20.7029L18.5612 16.9569C18.3857 16.7813 18.1475 16.6826 17.8991 16.6825Z" fill="white"/>
<path d="M6.9365 68.19H57.5075C57.7559 68.19 57.9941 68.0913 58.1698 67.9157C58.3454 67.74 58.444 67.5018 58.444 67.2535V63.5075C58.444 63.2591 58.3454 63.0209 58.1698 62.8452C57.9941 62.6696 57.7559 62.571 57.5075 62.571H55.6345V50.3964C55.6345 50.1481 55.5359 49.9099 55.3603 49.7342C55.1846 49.5586 54.9464 49.4599 54.698 49.4599H47.3521C49.0202 46.7648 49.9381 43.673 50.0108 40.5042C50.0836 37.3354 49.3086 34.2047 47.766 31.4358C46.2234 28.6669 43.9692 26.3604 41.2365 24.7546C38.5037 23.1488 35.3916 22.3022 32.222 22.3022C29.0524 22.3022 25.9403 23.1488 23.2076 24.7546C20.4748 26.3604 18.2206 28.6669 16.678 31.4358C15.1354 34.2047 14.3604 37.3354 14.4332 40.5042C14.506 43.673 15.4238 46.7648 17.0919 49.4599H9.746C9.49763 49.4599 9.25943 49.5586 9.0838 49.7342C8.90817 49.9099 8.8095 50.1481 8.8095 50.3964V62.571H6.9365C6.68813 62.571 6.44992 62.6696 6.27429 62.8452C6.09867 63.0209 6 63.2591 6 63.5075V67.2535C6 67.5018 6.09867 67.74 6.27429 67.9157C6.44992 68.0913 6.68813 68.19 6.9365 68.19ZM16.3015 40.0949C16.3005 37.3533 17.0076 34.658 18.3541 32.2698C19.7007 29.8817 21.6411 27.8818 23.9875 26.4638C26.3339 25.0458 29.0067 24.2577 31.7471 24.1759C34.4875 24.0941 37.2025 24.7214 39.6293 25.997C42.0561 27.2726 44.1123 29.1532 45.5989 31.4568C47.0855 33.7603 47.952 36.4088 48.1145 39.1455C48.2771 41.8823 47.7301 44.6147 46.5266 47.078C45.3232 49.5413 43.5039 51.6521 41.2452 53.2059H23.1988C21.0712 51.7447 19.3313 49.7873 18.1296 47.503C16.9278 45.2187 16.3004 42.6761 16.3015 40.0949ZM10.6825 51.3329H18.4339C18.9812 51.9993 19.5759 52.6252 20.2133 53.2059H16.3015V55.0789H48.1425V53.2059H44.2336C44.871 52.6252 45.4657 51.9993 46.0129 51.3329H53.7615V62.571H10.6825V51.3329ZM7.873 64.444H56.571V66.317H7.873V64.444Z" fill="white"/>
</svg>
