<svg width="454" height="47" viewBox="0 0 454 47" fill="none" xmlns="http://www.w3.org/2000/svg">
<path d="M418.845 45.5415V0.70459H453.305V8.77524H428.133V19.0237H444.722V26.8381H428.133V37.4709H453.562V45.5415H418.845Z" fill="#19363A"/>
<path d="M394.968 46.182C391.637 46.182 388.52 45.6056 385.616 44.4526C382.712 43.257 380.172 41.6129 377.994 39.5206C375.859 37.4282 374.172 34.9942 372.934 32.2185C371.738 29.4002 371.14 26.3684 371.14 23.123C371.14 19.835 371.738 16.8032 372.934 14.0276C374.172 11.2092 375.88 8.75388 378.058 6.66149C380.236 4.5691 382.755 2.94643 385.616 1.79348C388.52 0.597826 391.637 0 394.968 0C397.445 0 399.836 0.341615 402.142 1.02484C404.448 1.70807 406.583 2.66886 408.547 3.90722C410.554 5.14557 412.262 6.64014 413.671 8.39091L407.394 14.604C405.771 12.597 403.893 11.0811 401.757 10.0563C399.665 9.03144 397.402 8.51902 394.968 8.51902C392.961 8.51902 391.082 8.90333 389.331 9.67197C387.58 10.3979 386.065 11.4227 384.783 12.7465C383.502 14.0276 382.499 15.5648 381.773 17.3583C381.047 19.1091 380.684 21.0307 380.684 23.123C380.684 25.1727 381.047 27.0943 381.773 28.8878C382.499 30.6386 383.524 32.1758 384.848 33.4996C386.171 34.7806 387.709 35.7841 389.459 36.5101C391.253 37.236 393.196 37.599 395.288 37.599C397.637 37.599 399.836 37.1079 401.886 36.1258C403.935 35.1436 405.75 33.7345 407.33 31.8983L413.415 37.9192C412.006 39.6273 410.319 41.1005 408.355 42.3389C406.391 43.5772 404.256 44.538 401.95 45.2213C399.686 45.8618 397.359 46.182 394.968 46.182Z" fill="#19363A"/>
<path d="M324.893 45.5415V0.70459H333.732L356.022 29.6564V0.70459H364.733V45.5415H356.535L333.668 15.5648V45.5415H324.893Z" fill="#19363A"/>
<path d="M273.687 45.5415L292.135 0.70459H302.831L321.086 45.5415H311.03L306.482 33.7558H287.971L283.359 45.5415H273.687ZM290.854 26.3257H303.664L297.259 9.80008L290.854 26.3257Z" fill="#19363A"/>
<path d="M230.002 45.5415V0.70459H238.841L261.131 29.6564V0.70459H269.843V45.5415H261.644L238.777 15.5648V45.5415H230.002Z" fill="#19363A"/>
<path d="M212.55 45.5415V0.70459H221.838V45.5415H212.55Z" fill="#19363A"/>
<path d="M171.641 45.5415V0.70459H206.294V8.77524H180.929V19.3439H197.775V27.1584H180.929V45.5415H171.641Z" fill="#19363A"/>
<path d="M141.304 45.5415V0.70459H150.592V45.5415H141.304Z" fill="#E47344"/>
<path d="M112.484 46.2461C109.153 46.2461 106.057 45.6696 103.196 44.5167C100.335 43.321 97.8156 41.677 95.6378 39.5846C93.46 37.4495 91.7519 34.9942 90.5136 32.2185C89.3179 29.4002 88.7201 26.3684 88.7201 23.123C88.7201 19.8777 89.3179 16.8672 90.5136 14.0916C91.7519 11.2733 93.4386 8.81793 95.5737 6.72554C97.7088 4.59045 100.207 2.94643 103.068 1.79348C105.972 0.597826 109.068 0 112.356 0C116.071 0 119.572 0.747282 122.86 2.24184C126.148 3.69371 128.86 5.7434 130.995 8.39091L124.526 14.3478C122.988 12.4262 121.173 10.9744 119.081 9.99223C116.989 9.01009 114.747 8.51902 112.356 8.51902C110.349 8.51902 108.491 8.90333 106.783 9.67197C105.075 10.3979 103.58 11.4227 102.299 12.7465C101.018 14.0276 100.015 15.5648 99.2888 17.3583C98.6056 19.1091 98.2639 21.0307 98.2639 23.123C98.2639 25.2154 98.6269 27.1584 99.3528 28.9518C100.079 30.7453 101.082 32.3039 102.363 33.6277C103.687 34.9088 105.203 35.9336 106.911 36.7022C108.662 37.4282 110.562 37.7911 112.612 37.7911C114.747 37.7911 116.668 37.4068 118.377 36.6382C120.085 35.8268 121.515 34.7166 122.668 33.3074C123.864 31.8556 124.654 30.2329 125.038 28.4394H111.779V20.3688H134.966V23.1871C134.966 26.5178 134.39 29.5924 133.237 32.4107C132.127 35.1863 130.568 37.6203 128.561 39.7127C126.554 41.7624 124.184 43.3637 121.451 44.5167C118.718 45.6696 115.729 46.2461 112.484 46.2461Z" fill="#E47344"/>
<path d="M41.7464 45.5415L60.1936 0.70459H70.8904L89.1455 45.5415H79.0892L74.5414 33.7558H56.0302L51.4184 45.5415H41.7464ZM58.9126 26.3257H71.7231L65.3178 9.80008L58.9126 26.3257Z" fill="#E47344"/>
<path d="M0 45.5415V0.70459H9.28765V20.7531L28.8878 0.70459H40.2251L18.4472 22.0342L41.25 45.5415H28.8237L9.28765 24.7244V45.5415H0Z" fill="#E47344"/>
</svg>
