<svg width="84" height="82" viewBox="0 0 84 82" fill="none" xmlns="http://www.w3.org/2000/svg">
<path d="M64.1299 23.2977L54.1402 13.308C54.0231 13.1909 53.8639 13.1254 53.6977 13.1254H21.2353C20.8912 13.1254 20.6102 13.404 20.6102 13.7505V27.486C20.6102 27.8302 20.8888 28.1111 21.2353 28.1111C21.5795 28.1111 21.8604 27.8325 21.8604 27.486V14.3732H53.075V23.7378C53.075 24.0819 53.3536 24.3629 53.7001 24.3629H63.0647V68.0652H21.8604V54.9547C21.8604 54.6106 21.5818 54.3296 21.2353 54.3296C20.8912 54.3296 20.6102 54.6082 20.6102 54.9547V68.6903C20.6102 69.0344 20.8888 69.3154 21.2353 69.3154H63.6874C64.0315 69.3154 64.3125 69.0368 64.3125 68.6903V23.7378C64.3125 23.5716 64.2469 23.4124 64.1299 23.2953L64.1299 23.2977ZM54.323 15.2558L62.1796 23.1125H54.323V15.2558Z" fill="white"/>
<path d="M31.8479 41.2189C31.8479 34.6778 26.5264 29.3563 19.9852 29.3563C13.4465 29.3563 8.125 34.6778 8.125 41.2189C8.125 47.7601 13.4464 53.0816 19.9876 53.0816C26.5288 53.0816 31.8503 47.7601 31.8503 41.2189H31.8479ZM19.9876 51.8314C14.1348 51.8314 9.37521 47.0695 9.37521 41.2189C9.37521 35.3684 14.1371 30.6065 19.9876 30.6065C25.8405 30.6065 30.6 35.3684 30.6 41.2189C30.6 47.0718 25.8382 51.8314 19.9876 51.8314Z" fill="white"/>
<path d="M43.7106 64.3191H48.7042C49.0484 64.3191 49.3293 64.0405 49.3293 63.694V48.7107C49.3293 48.3665 49.0507 48.0856 48.7042 48.0856H43.7106C43.3664 48.0856 43.0854 48.3642 43.0854 48.7107V63.694C43.0854 64.0382 43.364 64.3191 43.7106 64.3191ZM44.3357 49.3358H48.0815V63.0713H44.3357V49.3358Z" fill="white"/>
<path d="M34.3458 63.694C34.3458 64.0382 34.6244 64.3191 34.9709 64.3191H39.9646C40.3087 64.3191 40.5897 64.0405 40.5897 63.694V53.7043C40.5897 53.3602 40.3111 53.0792 39.9646 53.0792H34.9709C34.6268 53.0792 34.3458 53.3578 34.3458 53.7043V63.694ZM35.5936 54.3294H39.3395V63.0689H35.5936V54.3294Z" fill="white"/>
<path d="M26.2291 56.8275C25.885 56.8275 25.604 57.106 25.604 57.4526V63.6964C25.604 64.0406 25.8826 64.3215 26.2291 64.3215H31.2228C31.5669 64.3215 31.8479 64.0429 31.8479 63.6964V57.4526C31.8479 57.1084 31.5693 56.8275 31.2228 56.8275H26.2291ZM30.6001 63.0689H26.8542V58.0753H30.6001V63.0689Z" fill="white"/>
<path d="M56.1958 51.8314C57.5584 51.8314 58.0688 51.8314 58.0688 53.7043C58.0688 54.0485 58.3474 54.3294 58.6939 54.3294C59.038 54.3294 59.319 54.0508 59.319 53.7043C59.319 51.0378 58.0571 50.6514 56.8209 50.5929V49.9585C56.8209 49.6143 56.5424 49.3334 56.1958 49.3334C55.8517 49.3334 55.5707 49.612 55.5707 49.9585V50.5929C54.3346 50.6491 53.0727 51.0378 53.0727 53.7043C53.0727 55.095 53.0727 56.8251 56.1934 56.8251C58.0664 56.8251 58.0664 57.3354 58.0664 58.698C58.0664 60.5709 57.556 60.5709 56.1934 60.5709C54.8309 60.5709 54.3205 60.5709 54.3205 58.698C54.3205 58.3538 54.0419 58.0729 53.6954 58.0729C53.3513 58.0729 53.0703 58.3515 53.0703 58.698C53.0703 61.3645 54.3322 61.7509 55.5683 61.8094V62.4438C55.5683 62.788 55.8469 63.0689 56.1934 63.0689C56.5376 63.0689 56.8186 62.7903 56.8186 62.4438V61.8094C58.0547 61.7532 59.3166 61.3645 59.3166 58.698C59.3166 57.3073 59.3166 55.5772 56.1958 55.5772C54.3229 55.5772 54.3229 55.0669 54.3229 53.7043C54.3229 51.8314 54.8333 51.8314 56.1958 51.8314Z" fill="white"/>
<path d="M10.6231 19.3062V23.7403C10.6231 23.9767 10.7566 24.1921 10.9673 24.2998L13.1188 25.3768V28.7363C13.1188 29.0805 13.3973 29.3614 13.7439 29.3614C14.088 29.3614 14.369 29.0828 14.369 28.7363V24.9905C14.369 24.754 14.2355 24.5386 14.0248 24.431L11.8733 23.354V19.3062C13.2967 19.0159 14.3714 17.754 14.3714 16.2486C14.3714 14.5279 12.9714 13.1279 11.2506 13.1279C9.52987 13.1279 8.12988 14.5279 8.12988 16.2486C8.12988 17.7563 9.20449 19.0159 10.6279 19.3062H10.6231ZM11.2459 14.3733C12.2784 14.3733 13.1188 15.2138 13.1188 16.2463C13.1188 17.2787 12.2784 18.1192 11.2459 18.1192C10.2134 18.1192 9.37296 17.2787 9.37296 16.2463C9.37296 15.2138 10.2134 14.3733 11.2459 14.3733Z" fill="white"/>
<path d="M13.7438 53.0816C13.3996 53.0816 13.1187 53.3602 13.1187 53.7067V57.0663L10.9672 58.1409C10.7565 58.2462 10.623 58.4616 10.623 58.7004V63.1345C9.19961 63.4248 8.125 64.6844 8.125 66.1921C8.125 67.9128 9.52499 69.3128 11.2457 69.3128C12.9665 69.3128 14.3665 67.9128 14.3665 66.1921C14.3665 64.6844 13.2919 63.4225 11.8684 63.1345V59.0867L14.0199 58.0121C14.2306 57.9067 14.3641 57.6913 14.3641 57.4525V53.7067C14.3641 53.3626 14.0855 53.0816 13.739 53.0816H13.7438ZM13.1187 66.192C13.1187 67.2245 12.2782 68.065 11.2457 68.065C10.2133 68.065 9.37283 67.2245 9.37283 66.192C9.37283 65.1596 10.2133 64.3191 11.2457 64.3191C12.2782 64.3191 13.1187 65.1596 13.1187 66.192Z" fill="white"/>
<path d="M16.8645 20.2518V27.4858C16.8645 27.8299 17.1431 28.1109 17.4896 28.1109C17.8337 28.1109 18.1147 27.8323 18.1147 27.4858V19.9941C18.1147 19.8279 18.0491 19.6687 17.9321 19.5516L16.6843 18.3038C16.4408 18.0603 16.0451 18.0603 15.8016 18.3038C15.5581 18.5473 15.5582 18.943 15.8016 19.1865L16.8668 20.2517L16.8645 20.2518Z" fill="white"/>
<path d="M17.4896 54.3294C17.1455 54.3294 16.8645 54.608 16.8645 54.9545V62.1885L15.7993 63.2537C15.5558 63.4971 15.5558 63.8928 15.7993 64.1363C15.921 64.258 16.0802 64.3189 16.2418 64.3189C16.401 64.3189 16.5602 64.258 16.6843 64.1363L17.9321 62.8885C18.0491 62.7714 18.1147 62.6122 18.1147 62.446V54.9543C18.1147 54.6102 17.8361 54.3294 17.4896 54.3294Z" fill="white"/>
<path d="M38.2745 29.5392C38.031 29.7826 38.031 30.1783 38.2745 30.4218L39.5223 31.6696C39.6441 31.7913 39.8033 31.8522 39.9648 31.8522C40.124 31.8522 40.2832 31.7914 40.4073 31.6696L42.9053 29.1716C43.1488 28.9281 43.1488 28.5325 42.9053 28.2889C42.6618 28.0454 42.2662 28.0455 42.0227 28.2889L39.9671 30.3445L39.1594 29.5368C38.9159 29.2933 38.5203 29.2933 38.2768 29.5368L38.2745 29.5392Z" fill="white"/>
<path d="M38.7169 26.8607H36.2189C35.8747 26.8607 35.5938 27.1393 35.5938 27.4858V33.7297C35.5938 34.0738 35.8723 34.3548 36.2189 34.3548H41.2125C41.5567 34.3548 41.8376 34.0762 41.8376 33.7297C41.8376 33.3855 41.559 33.1046 41.2125 33.1046H36.8416V28.1109H38.7145C39.0586 28.1109 39.3396 27.8323 39.3396 27.4858C39.3396 27.1417 39.061 26.8607 38.7145 26.8607H38.7169Z" fill="white"/>
<path d="M42.9026 38.281C42.6591 38.0375 42.2635 38.0375 42.02 38.281L39.9644 40.3365L39.1567 39.5288C38.9132 39.2853 38.5176 39.2853 38.2741 39.5288C38.0305 39.7723 38.0306 40.1679 38.2741 40.4115L39.5219 41.6593C39.6436 41.781 39.8028 41.8419 39.9643 41.8419C40.1235 41.8419 40.2827 41.781 40.4068 41.6593L42.9048 39.1612C43.1483 38.9178 43.1483 38.5221 42.9048 38.2786L42.9026 38.281Z" fill="white"/>
<path d="M35.5937 43.717C35.5937 44.0611 35.8723 44.3421 36.2188 44.3421H41.2125C41.5566 44.3421 41.8376 44.0635 41.8376 43.717C41.8376 43.3728 41.559 43.0919 41.2125 43.0919H36.8415V38.0982H38.7144C39.0586 38.0982 39.3395 37.8196 39.3395 37.4731C39.3395 37.129 39.061 36.848 38.7144 36.848H36.2164C35.8723 36.848 35.5913 37.1266 35.5913 37.4731V43.717H35.5937Z" fill="white"/>
<path d="M58.6938 41.8441H46.2085C45.8643 41.8441 45.5834 42.1227 45.5834 42.4692C45.5834 42.8134 45.862 43.0943 46.2085 43.0943H58.6938C59.038 43.0943 59.3189 42.8157 59.3189 42.4692C59.3189 42.1251 59.0403 41.8441 58.6938 41.8441Z" fill="white"/>
<path d="M58.6938 39.346H46.2085C45.8643 39.346 45.5834 39.6246 45.5834 39.9711C45.5834 40.3153 45.862 40.5962 46.2085 40.5962H58.6938C59.038 40.5962 59.3189 40.3176 59.3189 39.9711C59.3189 39.627 59.0403 39.346 58.6938 39.346Z" fill="white"/>
<path d="M58.6938 31.8544H46.2085C45.8643 31.8544 45.5834 32.133 45.5834 32.4795C45.5834 32.8236 45.862 33.1046 46.2085 33.1046H58.6938C59.038 33.1046 59.3189 32.826 59.3189 32.4795C59.3189 32.1353 59.0403 31.8544 58.6938 31.8544Z" fill="white"/>
<path d="M58.6938 29.3563H46.2085C45.8643 29.3563 45.5834 29.6349 45.5834 29.9814C45.5834 30.3256 45.862 30.6065 46.2085 30.6065H58.6938C59.038 30.6065 59.3189 30.3279 59.3189 29.9814C59.3189 29.6373 59.0403 29.3563 58.6938 29.3563Z" fill="white"/>
<path d="M31.2251 24.3627C31.5692 24.3627 31.8502 24.0841 31.8502 23.7376V18.7439C31.8502 18.3998 31.5716 18.1188 31.2251 18.1188H26.2314C25.8873 18.1188 25.6063 18.3974 25.6063 18.7439V23.7376C25.6063 24.0817 25.8849 24.3627 26.2314 24.3627H31.2251ZM26.8541 19.369H30.6V23.1149H26.8541V19.369Z" fill="white"/>
<path d="M34.9709 20.6169H47.4563C47.8004 20.6169 48.0814 20.3383 48.0814 19.9917C48.0814 19.6476 47.8028 19.3666 47.4563 19.3666H34.9709C34.6268 19.3666 34.3458 19.6452 34.3458 19.9917C34.3458 20.3359 34.6244 20.6169 34.9709 20.6169Z" fill="white"/>
<path d="M34.9709 23.1149H47.4563C47.8004 23.1149 48.0814 22.8363 48.0814 22.4898C48.0814 22.1456 47.8028 21.8647 47.4563 21.8647H34.9709C34.6268 21.8647 34.3458 22.1433 34.3458 22.4898C34.3458 22.8339 34.6244 23.1149 34.9709 23.1149Z" fill="white"/>
<path d="M20.2993 33.3971C20.1074 33.2871 19.8686 33.2871 19.6742 33.3971L13.3692 37.0376C13.1749 37.15 13.0579 37.356 13.0579 37.5784V44.8591C13.0579 45.0815 13.1773 45.2875 13.3692 45.3999L19.6742 49.0404C19.7702 49.0966 19.8779 49.1247 19.9856 49.1247C20.0933 49.1247 20.201 49.0966 20.297 49.0404L26.602 45.3999C26.7963 45.2899 26.9133 45.0838 26.9133 44.8591V37.5784C26.9133 37.356 26.7939 37.15 26.602 37.0376L20.297 33.3971H20.2993ZM19.988 34.659L25.0378 37.5761L19.988 40.4932L14.9381 37.5761L19.988 34.659ZM14.306 38.653L19.3629 41.5724V47.4183L14.306 44.4965V38.6507V38.653ZM20.611 47.4183V41.5724L25.6679 38.653V44.4965L20.611 47.4183Z" fill="white"/>
</svg>
