<svg width="112" height="152" viewBox="0 0 112 152" fill="none" xmlns="http://www.w3.org/2000/svg">
<g opacity="0.4">
<path d="M20.4213 65.7322H10.8486V45.3105C10.8486 20.4217 31.2703 0 56.1592 0C79.1335 0 98.2788 16.9117 101.151 39.567L91.8971 40.8433C89.6635 22.9744 74.3472 9.57265 56.1592 9.57265C36.3757 9.57265 20.4213 25.5271 20.4213 45.3105V65.7322Z" fill="white"/>
<path d="M96.6838 151.886H15.3162C7.01995 151.886 0 145.185 0 136.57V75.6239C0 67.3276 6.70086 60.3076 15.3162 60.3076H96.6838C104.98 60.3076 112 67.0085 112 75.6239V136.57C112 145.185 105.299 151.886 96.6838 151.886ZM15.6353 70.8375C12.7635 70.8375 10.5299 73.0711 10.5299 75.9429V136.889C10.5299 139.761 12.7635 141.994 15.6353 141.994H97.0029C99.8746 141.994 102.108 139.761 102.108 136.889V75.9429C102.108 73.0711 99.8746 70.8375 97.0029 70.8375H15.6353Z" fill="white"/>
<path d="M66.3701 90.9393C66.3701 96.6829 61.9029 101.15 56.1593 101.15C50.4157 101.15 45.9485 96.6829 45.9485 90.9393C45.9485 85.1958 50.4157 80.7285 56.1593 80.7285C61.9029 80.7285 66.3701 85.5148 66.3701 90.9393Z" fill="white"/>
<path d="M58.712 90.9399H53.6066L48.5012 121.572H63.8175L58.712 90.9399Z" fill="white"/>
</g>
</svg>
