<svg width="210" height="40" viewBox="0 0 210 40" fill="none" xmlns="http://www.w3.org/2000/svg">
<path d="M0.0999621 1L15.9296 21.9593L0 39H3.58511L17.5315 24.0806L28.7997 39H41L24.2797 16.8618L39.1069 1H35.5218L22.6779 14.7405L12.3002 1H0.0999621ZM5.37214 3.61504H10.977L35.727 36.3846H30.1222L5.37214 3.61504Z" fill="#E47344"/>
<path d="M121.891 1.71115C121.013 0.986048 119.805 0.799458 118.747 1.22524L82.9125 15.6218C81.3362 16.2675 80.5843 18.0626 81.2331 19.6311C81.5687 20.4423 82.2367 21.0719 83.0687 21.3614L90.7992 24.0359L94.9887 37.8202C94.9971 37.8483 95.023 37.8654 95.0339 37.8924C95.0772 38.0023 95.1405 38.1035 95.2205 38.1907C95.2503 38.2258 95.2828 38.2587 95.3174 38.2891C95.4218 38.3754 95.543 38.4391 95.6734 38.4763C95.6933 38.4821 95.7066 38.4998 95.7269 38.5044L95.7386 38.5039L95.7444 38.5063C95.8112 38.5211 95.8793 38.5283 95.9476 38.5277C96.0368 38.5245 96.1253 38.5092 96.2103 38.4821C96.2267 38.4776 96.2433 38.4789 96.2594 38.4735C96.4046 38.4226 96.5357 38.3389 96.6425 38.2289C96.655 38.2165 96.6739 38.2143 96.6858 38.2012L102.713 31.583L111.506 38.3586C112.041 38.7743 112.699 39.0001 113.377 39C114.844 38.9998 116.11 37.9773 116.413 36.5491L122.938 4.66938C123.164 3.5666 122.762 2.42957 121.891 1.71115ZM97.1762 26.6501L95.7618 33.4902L92.812 23.782L107.442 16.2009L97.4477 26.1467C97.3095 26.2843 97.2151 26.4594 97.1762 26.6501ZM114.454 36.1487C114.377 36.515 114.114 36.8155 113.76 36.9417C113.414 37.0741 113.024 37.015 112.733 36.7862L103.206 29.445C102.793 29.1272 102.204 29.1789 101.854 29.5636L97.6627 34.1655L99.0746 27.344L113.452 13.0348C113.842 12.6467 113.843 12.017 113.453 11.6282C113.145 11.3205 112.671 11.2479 112.284 11.4488L91.5569 22.1898L83.723 19.48C83.296 19.3401 83.0056 18.9457 83.0004 18.4984C82.9797 18.048 83.2477 17.6339 83.6683 17.4663L119.497 3.0717C119.871 2.91366 120.303 2.97986 120.612 3.24274C120.919 3.48983 121.061 3.8884 120.977 4.27288L114.454 36.1487Z" fill="#E47344"/>
<rect x="171.07" y="1" width="37.9296" height="37.9296" rx="11" stroke="#E47344" stroke-width="2"/>
<path d="M183.693 16.9384C183.692 16.9384 183.693 16.9384 183.693 16.9384H178.62C178.27 16.9381 177.986 17.2192 177.986 17.5659C177.986 17.5657 177.986 17.5662 177.986 17.5659V32.6463C177.986 32.9931 178.269 33.2744 178.619 33.2746C178.619 33.2746 178.62 33.2746 178.619 33.2746H183.692C184.042 33.2749 184.326 32.9938 184.326 32.647C184.326 32.6468 184.326 32.6472 184.326 32.647V17.5667C184.326 17.2199 184.042 16.9386 183.693 16.9384ZM183.058 32.018H179.254V18.195H183.058V32.018ZM197.005 16.9384C195.63 16.9385 194.293 17.3884 193.201 18.2183V17.5667C193.202 17.2199 192.918 16.9386 192.568 16.9384C192.568 16.9384 192.568 16.9384 192.568 16.9384H187.496C187.146 16.9381 186.862 17.2192 186.862 17.5659C186.862 17.5657 186.862 17.5662 186.862 17.5659V32.6463C186.861 32.9931 187.145 33.2744 187.495 33.2746C187.495 33.2746 187.495 33.2746 187.495 33.2746H192.567C192.917 33.2749 193.201 32.9938 193.201 32.647C193.201 32.6468 193.201 32.6472 193.201 32.647V25.7348C193.201 24.6938 194.053 23.8499 195.103 23.8499C196.154 23.8499 197.005 24.6938 197.005 25.7348V32.6463C197.005 32.9931 197.289 33.2744 197.639 33.2746C197.638 33.2746 197.639 33.2746 197.639 33.2746H202.711C203.061 33.2749 203.345 32.9938 203.345 32.647C203.345 32.6468 203.345 32.6472 203.345 32.647V23.2215C203.341 19.7531 200.505 16.9424 197.005 16.9384ZM202.077 32.018H198.273V25.7348C198.273 23.9997 196.854 22.5932 195.103 22.5932C193.353 22.5932 191.933 23.9997 191.933 25.7348V32.018H188.13V18.195H191.933V19.7069C191.933 19.9739 192.104 20.2117 192.358 20.2996C192.612 20.3903 192.896 20.3097 193.063 20.0996C194.79 17.9296 197.966 17.5586 200.155 19.2709C201.375 20.2248 202.084 21.6818 202.077 23.2215V32.018ZM181.623 8.14423C181.473 8.13387 181.324 8.13311 181.175 8.14193C179.261 8.01238 177.604 9.44489 177.473 11.3415C177.468 11.4178 177.465 11.4942 177.465 11.5707C177.448 13.4512 178.973 14.9888 180.871 15.0052C180.948 15.0059 181.025 15.0039 181.103 14.9993H181.139C183.049 15.1318 184.705 13.7046 184.839 11.8116C184.973 9.91858 183.533 8.27669 181.623 8.14423ZM181.579 13.7463C181.432 13.7597 181.285 13.7585 181.139 13.7427H181.103C179.89 13.8351 178.832 12.936 178.739 11.7345C178.646 10.5331 179.553 9.48423 180.765 9.39189C180.902 9.38153 181.039 9.38376 181.175 9.39856C182.386 9.28796 183.458 10.1715 183.57 11.3721C183.682 12.5727 182.79 13.6357 181.579 13.7463Z" fill="#E47344"/>
</svg>
