<svg width="81" height="81" viewBox="0 0 81 81" fill="none" xmlns="http://www.w3.org/2000/svg">
<path fill-rule="evenodd" clip-rule="evenodd" d="M59.3818 9.43636H21.6182C14.8903 9.43636 9.43636 14.8903 9.43636 21.6182V59.3818C9.43636 66.1097 14.8903 71.5636 21.6182 71.5636H59.3818C66.1097 71.5636 71.5636 66.1097 71.5636 59.3818V21.6182C71.5636 14.8903 66.1097 9.43636 59.3818 9.43636ZM21.6182 7C13.5448 7 7 13.5448 7 21.6182V59.3818C7 67.4552 13.5448 74 21.6182 74H59.3818C67.4552 74 74 67.4552 74 59.3818V21.6182C74 13.5448 67.4552 7 59.3818 7H21.6182Z" fill="#19363A"/>
<path d="M29.8575 35.4216C29.8579 35.4216 29.857 35.4216 29.8575 35.4216H21.3461C20.7588 35.4213 20.2827 35.8928 20.2823 36.4746C20.2823 36.4743 20.2823 36.4752 20.2823 36.4746V61.7789C20.2819 62.3608 20.7577 62.8328 21.3448 62.8331C21.3444 62.8331 21.3453 62.8331 21.3448 62.8331H29.8563C30.4435 62.8335 30.9196 62.362 30.92 61.78C30.92 61.7804 30.92 61.7796 30.92 61.78V36.4759C30.9204 35.894 30.4446 35.422 29.8575 35.4216ZM28.7925 60.7246H22.4098V37.5302H28.7925V60.7246ZM52.1955 35.4216C49.8875 35.4218 47.644 36.1767 45.8129 37.5693V36.4759C45.8133 35.894 45.3375 35.422 44.7504 35.4216C44.7508 35.4216 44.7499 35.4216 44.7504 35.4216H36.2389C35.6517 35.4213 35.1755 35.8928 35.1751 36.4746C35.1751 36.4743 35.1751 36.4752 35.1751 36.4746V61.7789C35.1747 62.3608 35.6505 62.8328 36.2377 62.8331C36.2373 62.8331 36.2381 62.8331 36.2377 62.8331H44.7491C45.3363 62.8335 45.8125 62.362 45.8129 61.78C45.8129 61.7804 45.8129 61.7796 45.8129 61.78V50.1817C45.8129 48.4349 47.2417 47.0188 49.0042 47.0188C50.7667 47.0188 52.1955 48.4349 52.1955 50.1817V61.7789C52.1951 62.3608 52.6709 62.8328 53.2581 62.8331C53.2577 62.8331 53.2585 62.8331 53.2581 62.8331H61.7695C62.3567 62.8335 62.8329 62.362 62.8333 61.78C62.8333 61.7804 62.8333 61.7796 62.8333 61.78V45.9645C62.8264 40.1447 58.0677 35.4285 52.1955 35.4216ZM60.7057 60.7246H54.3231V50.1817C54.3231 47.2703 51.9418 44.9102 49.0042 44.9102C46.0666 44.9102 43.6853 47.2703 43.6853 50.1817V60.7246H37.3027V37.5302H43.6853V40.0671C43.6853 40.5151 43.9713 40.9141 44.3981 41.0617C44.8239 41.2138 45.3002 41.0785 45.5803 40.726C48.4792 37.0849 53.8074 36.4624 57.4813 39.3356C59.5277 40.9361 60.717 43.3809 60.7057 45.9645V60.7246ZM26.384 20.6655C26.1338 20.6481 25.8827 20.6468 25.6323 20.6616C22.4213 20.4442 19.6404 22.8479 19.4211 26.0303C19.4122 26.1584 19.4078 26.2866 19.4076 26.4149C19.3799 29.5703 21.9385 32.1504 25.1222 32.1778C25.2522 32.179 25.3821 32.1756 25.5118 32.168H25.5721C28.777 32.3903 31.5568 29.9955 31.7811 26.8191C32.0054 23.6427 29.589 20.8877 26.384 20.6655ZM26.3106 30.0655C26.0649 30.0879 25.8174 30.086 25.5721 30.0595H25.5118C23.4776 30.2144 21.702 28.7058 21.5456 26.6898C21.3893 24.6739 22.9115 22.9139 24.9456 22.759C25.1744 22.7416 25.4043 22.7453 25.6323 22.7702C27.6649 22.5846 29.4646 24.0672 29.652 26.0817C29.8392 28.0963 28.3433 29.8799 26.3106 30.0655Z" fill="#19363A"/>
</svg>
