<svg width="112" height="112" viewBox="0 0 112 112" fill="none" xmlns="http://www.w3.org/2000/svg">
<path d="M36.3998 50.3998H31.1498V39.1999C31.1498 25.5499 42.3498 14.3499 55.9998 14.3499C68.5998 14.3499 79.0998 23.6249 80.6748 36.0499L75.5998 36.7499C74.3748 26.9499 65.9748 19.5999 55.9998 19.5999C45.1498 19.5999 36.3998 28.3499 36.3998 39.1999V50.3998Z" fill="#19363A"/>
<path d="M78.2248 97.6498H33.5998C29.0498 97.6498 25.1998 93.9748 25.1998 89.2498V55.8248C25.1998 51.2748 28.8748 47.4248 33.5998 47.4248H78.2248C82.7748 47.4248 86.6248 51.0998 86.6248 55.8248V89.2498C86.6248 93.9748 82.9498 97.6498 78.2248 97.6498ZM33.7748 53.1998C32.1998 53.1998 30.9748 54.4248 30.9748 55.9998V89.4248C30.9748 90.9998 32.1998 92.2248 33.7748 92.2248H78.3998C79.9748 92.2248 81.1998 90.9998 81.1998 89.4248V55.9998C81.1998 54.4248 79.9748 53.1998 78.3998 53.1998H33.7748Z" fill="#19363A"/>
<path d="M61.5998 64.2248C61.5998 67.3748 59.1498 69.8248 55.9998 69.8248C52.8498 69.8248 50.3998 67.3748 50.3998 64.2248C50.3998 61.0748 52.8498 58.6248 55.9998 58.6248C59.1498 58.6248 61.5998 61.2498 61.5998 64.2248Z" fill="#19363A"/>
<path d="M57.3998 64.2249H54.5998L51.7998 81.0249H60.1998L57.3998 64.2249Z" fill="#19363A"/>
</svg>
