<svg width="72" height="80" viewBox="0 0 72 80" fill="none" xmlns="http://www.w3.org/2000/svg">
<path d="M62.7401 31.0411C62.649 30.7712 62.4544 30.5486 62.1991 30.4222C61.9438 30.2959 61.6488 30.2761 61.3789 30.3672C61.109 30.4584 60.8864 30.653 60.76 30.9083C60.6336 31.1636 60.6138 31.4586 60.705 31.7285C62.0093 35.6182 62.3664 39.7631 61.7464 43.8186C61.1264 47.8741 59.5473 51.723 57.1403 55.0454C54.7334 58.3677 51.5681 61.0676 47.9077 62.9204C44.2473 64.7732 40.1975 65.7255 36.095 65.6981C32.7101 65.6981 29.3584 65.0314 26.2312 63.736C23.104 62.4407 20.2626 60.5421 17.8692 58.1487C15.4757 55.7552 13.5771 52.9138 12.2818 49.7866C10.9865 46.6594 10.3198 43.3077 10.3198 39.9228C10.3198 36.538 10.9865 33.1863 12.2818 30.0591C13.5771 26.9319 15.4757 24.0905 17.8692 21.697C20.2626 19.3036 23.104 17.405 26.2312 16.1096C29.3584 14.8143 32.7101 14.1476 36.095 14.1476C38.9033 14.146 41.6936 14.5957 44.3592 15.4793C44.495 15.5329 44.6403 15.5583 44.7862 15.5538C44.9322 15.5494 45.0757 15.5152 45.208 15.4534C45.3402 15.3916 45.4585 15.3035 45.5556 15.1945C45.6527 15.0854 45.7265 14.9577 45.7726 14.8192C45.8187 14.6806 45.836 14.5341 45.8235 14.3887C45.8111 14.2432 45.7691 14.1018 45.7001 13.9731C45.6311 13.8444 45.5367 13.7311 45.4224 13.6402C45.3082 13.5492 45.1766 13.4825 45.0358 13.4442C40.8233 12.0399 36.3383 11.6525 31.9474 12.3137C27.5565 12.9749 23.3844 14.6658 19.7722 17.2483C16.1601 19.8309 13.2104 23.2316 11.1643 27.1725C9.11827 31.1134 8.03395 35.4826 8 39.9228C8 47.3741 10.96 54.5202 16.2288 59.789C21.4977 65.0578 28.6437 68.0178 36.095 68.0178C43.5463 68.0178 50.6923 65.0578 55.9612 59.789C61.23 54.5202 64.19 47.3741 64.19 39.9228C64.1926 36.9031 63.7029 33.9032 62.7401 31.0411Z" fill="#19363A"/>
<path d="M18.9115 39.9229C18.9115 43.3214 19.9193 46.6437 21.8074 49.4695C23.6956 52.2953 26.3793 54.4978 29.5191 55.7983C32.659 57.0989 36.114 57.4392 39.4473 56.7762C42.7806 56.1131 45.8424 54.4766 48.2455 52.0734C50.6487 49.6703 52.2853 46.6085 52.9483 43.2752C53.6113 39.9419 53.271 36.4869 51.9705 33.347C50.6699 30.2072 48.4674 27.5235 45.6416 25.6353C42.8158 23.7472 39.4936 22.7394 36.095 22.7394C31.5376 22.7394 27.167 24.5498 23.9444 27.7723C20.7219 30.9948 18.9115 35.3655 18.9115 39.9229ZM51.1305 39.9229C51.1305 42.8966 50.2487 45.8036 48.5966 48.2762C46.9445 50.7488 44.5962 52.6759 41.8488 53.8139C39.1014 54.9519 36.0783 55.2497 33.1617 54.6695C30.2451 54.0894 27.566 52.6574 25.4632 50.5546C23.3605 48.4518 21.9285 45.7728 21.3483 42.8562C20.7682 39.9395 21.0659 36.9164 22.2039 34.169C23.342 31.4216 25.2691 29.0734 27.7417 27.4213C30.2143 25.7691 33.1212 24.8873 36.095 24.8873C40.0827 24.8873 43.907 26.4714 46.7267 29.2911C49.5464 32.1108 51.1305 35.9352 51.1305 39.9229Z" fill="#19363A"/>
<path d="M35.3325 31.6156L27.7825 39.1656C27.5825 39.3669 27.4702 39.6391 27.4702 39.9228C27.4702 40.2065 27.5825 40.4787 27.7825 40.6799L35.3325 48.2299C35.5337 48.43 35.8059 48.5422 36.0897 48.5422C36.3734 48.5422 36.6456 48.43 36.8468 48.2299L44.3968 40.6799C44.5968 40.4787 44.7091 40.2065 44.7091 39.9228C44.7091 39.6391 44.5968 39.3669 44.3968 39.1656L36.8468 31.6156C36.6456 31.4156 36.3734 31.3033 36.0897 31.3033C35.8059 31.3033 35.5337 31.4156 35.3325 31.6156ZM42.12 39.9228L36.095 45.9477L30.0647 39.9228L36.095 33.8978L42.12 39.9228Z" fill="#19363A"/>
<path d="M46.8346 22.7393H53.2784V29.1831C53.2784 29.468 53.3915 29.7411 53.593 29.9425C53.7944 30.1439 54.0675 30.2571 54.3524 30.2571C54.6372 30.2571 54.9104 30.1439 55.1118 29.9425C55.3132 29.7411 55.4263 29.468 55.4263 29.1831V22.7393H61.8701C62.155 22.7393 62.4281 22.6262 62.6295 22.4248C62.831 22.2234 62.9441 21.9502 62.9441 21.6653C62.9441 21.3805 62.831 21.1073 62.6295 20.9059C62.4281 20.7045 62.155 20.5914 61.8701 20.5914H55.4263V14.1476C55.4263 13.8627 55.3132 13.5896 55.1118 13.3882C54.9104 13.1868 54.6372 13.0736 54.3524 13.0736C54.0675 13.0736 53.7944 13.1868 53.593 13.3882C53.3915 13.5896 53.2784 13.8627 53.2784 14.1476V20.5914H46.8346C46.5498 20.5914 46.2766 20.7045 46.0752 20.9059C45.8738 21.1073 45.7606 21.3805 45.7606 21.6653C45.7606 21.9502 45.8738 22.2234 46.0752 22.4248C46.2766 22.6262 46.5498 22.7393 46.8346 22.7393Z" fill="#19363A"/>
</svg>
