<svg width="67" height="67" viewBox="0 0 67 67" fill="none" xmlns="http://www.w3.org/2000/svg">
<path fill-rule="evenodd" clip-rule="evenodd" d="M51.9936 39.4208L54.9502 37.7946L58.503 39.7486C61.4557 41.3727 61.4557 45.6156 58.503 47.2396L35.9188 59.6608C34.636 60.3664 33.0815 60.3664 31.7988 59.6608L9.21461 47.2396C6.2618 45.6156 6.2618 41.3727 9.2146 39.7486L12.7673 37.7946L15.7241 39.4208L10.5879 42.2456C9.60369 42.7869 9.60369 44.2012 10.5879 44.7425L33.1721 57.1639C33.5997 57.399 34.1179 57.399 34.5454 57.1639L57.1297 44.7425C58.1138 44.2012 58.1138 42.7869 57.1297 42.2456L51.9936 39.4208Z" fill="#19363A"/>
<path fill-rule="evenodd" clip-rule="evenodd" d="M12.7676 26.3954L9.2146 28.3495C6.2618 29.9735 6.2618 34.2165 9.21461 35.8405L31.7988 48.2618C33.0815 48.9673 34.636 48.9673 35.9188 48.2618L58.503 35.8405C61.4557 34.2164 61.4557 29.9735 58.503 28.3495L54.9503 26.3955L51.9937 28.0217L57.1297 30.8466C58.1138 31.3879 58.1138 32.8022 57.1297 33.3435L34.5454 45.7649C34.1179 46 33.5997 46 33.1721 45.7649L10.5879 33.3435C9.60369 32.8022 9.60369 31.3879 10.5879 30.8466L15.7242 28.0216L12.7676 26.3954Z" fill="#19363A"/>
<path fill-rule="evenodd" clip-rule="evenodd" d="M34.5457 7.02613C34.1181 6.79095 33.5999 6.79095 33.1724 7.02613L10.5882 19.4474C9.60392 19.9888 9.60392 21.403 10.5882 21.9445L33.1724 34.3657C33.5999 34.6009 34.1181 34.6009 34.5457 34.3657L57.1299 21.9445C58.1142 21.403 58.1142 19.9888 57.1299 19.4474L34.5457 7.02613ZM31.799 4.52914C33.0818 3.82362 34.6363 3.82362 35.919 4.52912L58.5032 16.9504C61.4561 18.5745 61.4561 22.8173 58.5032 24.4414L35.919 36.8628C34.6363 37.5682 33.0818 37.5682 31.799 36.8628L9.21485 24.4414C6.26205 22.8173 6.26204 18.5745 9.21485 16.9504L31.799 4.52914Z" fill="#19363A"/>
</svg>
