<svg width="85" height="85" viewBox="0 0 85 85" fill="none" xmlns="http://www.w3.org/2000/svg">
<path d="M77.7231 9.79135C76.1671 8.50105 74.0286 8.16902 72.1547 8.92668L8.69864 34.545C5.90729 35.6939 4.57592 38.8882 5.72485 41.6793C6.31909 43.1229 7.50195 44.2433 8.97534 44.7584L22.6647 49.5175L30.0835 74.0463C30.0984 74.0962 30.1443 74.1267 30.1635 74.1747C30.2403 74.3703 30.3524 74.5504 30.494 74.7056C30.5468 74.7681 30.6043 74.8267 30.6657 74.8807C30.8505 75.0342 31.0651 75.1477 31.296 75.2138C31.3312 75.2242 31.3548 75.2555 31.3907 75.2638L31.4114 75.2629L31.4218 75.2672C31.5401 75.2936 31.6607 75.3063 31.7815 75.3053C31.9395 75.2996 32.0963 75.2724 32.2467 75.2242C32.2759 75.2162 32.3053 75.2184 32.3338 75.2089C32.5908 75.1183 32.823 74.9693 33.0121 74.7735C33.0342 74.7514 33.0677 74.7476 33.0889 74.7242L43.7623 62.9475L59.3332 75.0044C60.2793 75.7441 61.4458 76.1459 62.6466 76.1457C65.244 76.1453 67.4861 74.3258 68.0213 71.7844L79.5769 15.0554C79.9773 13.0931 79.2646 11.0698 77.7231 9.79135ZM33.9572 54.1694L31.4525 66.3413L26.2291 49.0657L52.1359 35.5754L34.438 53.2736C34.1933 53.5185 34.0262 53.83 33.9572 54.1694ZM64.5525 71.0719C64.4168 71.7238 63.9516 72.2584 63.3247 72.483C62.7121 72.7186 62.0204 72.6136 61.5054 72.2063L44.6341 59.143C43.9037 58.5775 42.8611 58.6693 42.2407 59.3539L34.8186 67.543L37.319 55.4041L62.7782 29.9415C63.4702 29.2508 63.4713 28.1302 62.7806 27.4385C62.2344 26.891 61.3958 26.7617 60.71 27.1192L24.0065 46.2324L10.134 41.4104C9.37784 41.1616 8.86358 40.4597 8.85428 39.6638C8.81775 38.8622 9.29224 38.1253 10.0371 37.8272L73.4828 12.2124C74.1455 11.9312 74.9103 12.049 75.4577 12.5168C76.0024 12.9565 76.2527 13.6657 76.1044 14.3499L64.5525 71.0719Z" fill="#19363A"/>
</svg>
